<svg xmlns="http://www.w3.org/2000/svg" version="1.1" xmlns:xlink="http://www.w3.org/1999/xlink" xmlns:svgjs="http://svgjs.dev/svgjs" width="1500" height="935" viewBox="0 0 1500 935"><g transform="matrix(1,0,0,1,-0.9090909090909918,0.3785425101214628)"><svg viewBox="0 0 396 247" data-background-color="#000000" preserveAspectRatio="xMidYMid meet" height="935" width="1500" xmlns="http://www.w3.org/2000/svg" xmlns:xlink="http://www.w3.org/1999/xlink"><g id="tight-bounds" transform="matrix(1,0,0,1,0.2400000000000091,-0.09999999999999432)"><svg viewBox="0 0 395.52 247.2" height="247.2" width="395.52"><g><svg></svg></g><g><svg viewBox="0 0 395.52 247.2" height="247.2" width="395.52"><g transform="matrix(1,0,0,1,75.54432,108.85336077953714)"><svg viewBox="0 0 244.43135999999998 29.493278440925696" height="29.493278440925696" width="244.43135999999998"><g><svg viewBox="0 0 244.43135999999998 29.493278440925696" height="29.493278440925696" width="244.43135999999998"><g><svg viewBox="0 0 244.43135999999998 29.493278440925696" height="29.493278440925696" width="244.43135999999998"><g><svg viewBox="0 0 244.43135999999998 29.493278440925696" height="29.493278440925696" width="244.43135999999998"><g id="textblocktransform"><svg viewBox="0 0 244.43135999999998 29.493278440925696" height="29.493278440925696" width="244.43135999999998" id="textblock"><g><svg viewBox="0 0 244.43135999999998 29.493278440925696" height="29.493278440925696" width="244.43135999999998"><g transform="matrix(1,0,0,1,0,0)"><svg width="244.43135999999998" viewBox="1.39 -37.99 320.68 38.7" height="29.493278440925696" data-palette-color="#ffffff"><path d="M1.39-33.79L1.39-37.99 9.59-37.99 9.59-23.19Q11.21-24.44 13.11-25.17 15.01-25.9 17.04-25.9L17.04-25.9Q19.53-25.9 21.61-24.98 23.68-24.05 25.18-22.36 26.68-20.68 27.51-18.32 28.34-15.97 28.34-13.11L28.34-13.11Q28.34-10.06 27.42-7.58 26.49-5.1 24.84-3.32 23.19-1.54 20.92-0.57 18.65 0.39 15.94 0.39L15.94 0.39Q14.06 0.39 12.41-0.16 10.77-0.71 9.59-1.59L9.59-1.59 9.59 0 5.05 0 5.05-33.79 1.39-33.79ZM15.84-21.9L15.84-21.9Q14.06-21.9 12.43-21.17 10.79-20.43 9.59-19.19L9.59-19.19 9.59-5.59Q10.38-4.79 11.89-4.16 13.4-3.54 15.7-3.54L15.7-3.54Q17.26-3.54 18.7-4.13 20.14-4.71 21.24-5.9 22.34-7.08 23-8.84 23.66-10.6 23.66-12.94L23.66-12.94Q23.66-15.09 23.03-16.75 22.41-18.41 21.35-19.56 20.29-20.7 18.87-21.3 17.46-21.9 15.84-21.9ZM32.83-33.79L32.83-37.99 41.04-37.99 41.04-4.2 44.85-4.2 44.85 0 32.83 0 32.83-4.2 36.5-4.2 36.5-33.79 32.83-33.79ZM64.16 0L64.16-2.34Q62.71-1 60.97-0.15 59.22 0.71 57 0.71L57 0.71Q55.15 0.71 53.6 0.12 52.05-0.46 50.92-1.48 49.8-2.49 49.18-3.83 48.55-5.18 48.55-6.69L48.55-6.69Q48.55-8.3 49.03-9.55 49.51-10.79 50.3-11.71 51.09-12.62 52.16-13.24 53.22-13.87 54.38-14.25 55.54-14.62 56.75-14.78 57.95-14.94 59.05-14.94L59.05-14.94Q60.81-14.94 62.01-14.83 63.2-14.72 64.18-14.53L64.18-14.53 64.2-16.6Q64.2-17.94 63.81-18.93 63.42-19.92 62.71-20.57 62.01-21.22 61.02-21.53 60.03-21.85 58.81-21.85L58.81-21.85Q57.66-21.85 56.61-21.69 55.56-21.53 54.65-21.28 53.73-21.02 52.96-20.69 52.19-20.36 51.66-20L51.66-20 50.17-23.14Q51.07-23.73 52.14-24.23 53.22-24.73 54.4-25.09 55.59-25.44 56.82-25.65 58.05-25.85 59.25-25.85L59.25-25.85Q61.45-25.85 63.2-25.33 64.96-24.8 66.18-23.71 67.4-22.61 68.06-20.91 68.72-19.21 68.72-16.85L68.72-16.85 68.7-4.2 71.5-4.2 71.5 0 64.16 0ZM58-3.1L58-3.1Q58.91-3.1 59.81-3.32 60.71-3.54 61.52-3.92 62.32-4.3 63.01-4.8 63.69-5.3 64.16-5.83L64.16-5.83 64.18-11.55 58.91-11.55Q57.59-11.55 56.5-11.25 55.41-10.96 54.62-10.4 53.83-9.84 53.39-9.01 52.95-8.18 52.95-7.1L52.95-7.1Q52.95-6.1 53.32-5.36 53.68-4.61 54.35-4.11 55.02-3.61 55.95-3.36 56.88-3.1 58-3.1ZM99.48-18.55L94.89-18.55Q93.86-20.39 92.29-21.24 90.72-22.09 88.64-22.09L88.64-22.09Q87.05-22.09 85.66-21.44 84.27-20.78 83.23-19.56 82.19-18.33 81.6-16.59 81-14.84 81-12.7L81-12.7Q81-10.57 81.6-8.86 82.19-7.15 83.24-5.94 84.29-4.74 85.67-4.09 87.05-3.44 88.64-3.44L88.64-3.44Q90.98-3.44 92.72-4.58 94.45-5.71 95.48-7.91L95.48-7.91 99.24-6.05Q98.5-4.49 97.43-3.25 96.35-2 95-1.12 93.64-0.24 92.02 0.23 90.4 0.71 88.59 0.71L88.59 0.71Q85.95 0.71 83.72-0.28 81.49-1.27 79.86-3.05 78.24-4.83 77.34-7.3 76.43-9.77 76.43-12.7L76.43-12.7Q76.43-15.63 77.39-18.09 78.34-20.56 80-22.33 81.66-24.1 83.88-25.1 86.1-26.1 88.64-26.1L88.64-26.1Q91.03-26.1 93.17-25.27 95.31-24.44 96.92-22.75L96.92-22.75 99.48-22.75 99.48-18.55ZM103.73-33.79L103.73-37.99 112.64-37.99 112.64-33.79 112.59-33.79 112.59-14.89 116.98-14.89 122.99-21.09 121.47-21.09 121.47-25.29 131.07-25.29 131.07-21.09 127.87-21.09 120.18-13.16 128.58-4.2 131.63-4.2 131.63 0 126.28 0 115.93-11.3 112.59-11.3 112.59-4.2 114.69-4.2 114.69 0 103.87 0 103.87-4.2 108.02-4.2 108.02-33.79 103.73-33.79ZM132.87 0Q132.87 0 132.87 0ZM146.25-21.09L146.25-25.29 154.31-25.29 154.31-22.34 154.36-22.34Q155.19-23.05 156.1-23.67 157.02-24.29 158.02-24.76 159.02-25.22 160.1-25.49 161.19-25.76 162.36-25.76L162.36-25.76Q165.1-25.76 167.07-24.74 169.05-23.73 170.13-21.58L170.13-21.58Q171.05-22.41 172.08-23.18 173.11-23.95 174.22-24.51 175.33-25.07 176.55-25.42 177.77-25.76 179.09-25.76L179.09-25.76Q181.14-25.76 182.77-25.2 184.41-24.63 185.56-23.49 186.7-22.34 187.3-20.54 187.9-18.75 187.9-16.31L187.9-16.31 187.9-4.2 191.42-4.2 191.42 0 179.6 0 179.6-4.2 183.16-4.2 183.16-15.75Q183.16-18.65 181.7-20.15 180.23-21.66 177.48-21.66L177.48-21.66Q175.84-21.66 174.13-20.87 172.42-20.09 171.2-18.9L171.2-18.9 171.2-4.2 174.69-4.2 174.69 0 162.9 0 162.9-4.2 166.46-4.2 166.46-15.75Q166.46-18.65 164.99-20.15 163.51-21.66 160.75-21.66L160.75-21.66Q159.16-21.66 157.55-20.9 155.94-20.14 154.5-19.02L154.5-19.02 154.5-4.2 158.07-4.2 158.07 0 146.25 0 146.25-4.2 149.77-4.2 149.77-21.09 146.25-21.09ZM211.16 0L211.16-2.34Q209.72-1 207.98-0.15 206.23 0.71 204.01 0.71L204.01 0.71Q202.16 0.71 200.61 0.12 199.05-0.46 197.93-1.48 196.81-2.49 196.19-3.83 195.56-5.18 195.56-6.69L195.56-6.69Q195.56-8.3 196.04-9.55 196.52-10.79 197.31-11.71 198.1-12.62 199.16-13.24 200.23-13.87 201.39-14.25 202.55-14.62 203.75-14.78 204.96-14.94 206.06-14.94L206.06-14.94Q207.82-14.94 209.02-14.83 210.21-14.72 211.19-14.53L211.19-14.53 211.21-16.6Q211.21-17.94 210.82-18.93 210.43-19.92 209.72-20.57 209.02-21.22 208.03-21.53 207.04-21.85 205.82-21.85L205.82-21.85Q204.67-21.85 203.62-21.69 202.57-21.53 201.65-21.28 200.74-21.02 199.97-20.69 199.2-20.36 198.66-20L198.66-20 197.17-23.14Q198.08-23.73 199.15-24.23 200.23-24.73 201.41-25.09 202.59-25.44 203.83-25.65 205.06-25.85 206.26-25.85L206.26-25.85Q208.45-25.85 210.21-25.33 211.97-24.8 213.19-23.71 214.41-22.61 215.07-20.91 215.73-19.21 215.73-16.85L215.73-16.85 215.71-4.2 218.51-4.2 218.51 0 211.16 0ZM205.01-3.1L205.01-3.1Q205.92-3.1 206.82-3.32 207.72-3.54 208.53-3.92 209.33-4.3 210.02-4.8 210.7-5.3 211.16-5.83L211.16-5.83 211.19-11.55 205.92-11.55Q204.6-11.55 203.51-11.25 202.42-10.96 201.63-10.4 200.84-9.84 200.4-9.01 199.96-8.18 199.96-7.1L199.96-7.1Q199.96-6.1 200.32-5.36 200.69-4.61 201.36-4.11 202.03-3.61 202.96-3.36 203.89-3.1 205.01-3.1ZM241.83-25.44L241.83-19.95 237.19-19.95 237.19-21.51Q236.38-21.51 235.54-21.2 234.7-20.9 233.96-20.28 233.23-19.65 232.68-18.69 232.13-17.72 231.89-16.41L231.89-16.41 231.89-4.2 236.19-4.2 236.19 0 223.64 0 223.64-4.2 227.13-4.2 227.15-21.09 223.64-21.09 223.64-25.29 231.72-25.29 231.72-21.8Q232.16-22.58 232.71-23.25 233.26-23.93 233.93-24.43 234.6-24.93 235.42-25.21 236.23-25.49 237.19-25.49L237.19-25.49Q238.46-25.49 239.58-25.49 240.7-25.49 241.83-25.44L241.83-25.44ZM246.88-33.79L246.88-37.99 255.79-37.99 255.79-33.79 255.74-33.79 255.74-14.89 260.13-14.89 266.14-21.09 264.63-21.09 264.63-25.29 274.22-25.29 274.22-21.09 271.02-21.09 263.33-13.16 271.73-4.2 274.78-4.2 274.78 0 269.44 0 259.08-11.3 255.74-11.3 255.74-4.2 257.84-4.2 257.84 0 247.02 0 247.02-4.2 251.17-4.2 251.17-33.79 246.88-33.79ZM300.98-12.06L282.76-12.06Q282.76-10.99 282.92-10.1 283.08-9.2 283.37-8.4L283.37-8.4Q284.28-5.96 286.27-4.72 288.26-3.49 290.77-3.49L290.77-3.49Q292.75-3.49 294.62-4.04 296.48-4.59 298.53-5.76L298.53-5.76 300.37-2.66Q297.88-0.95 295.36-0.12 292.85 0.71 290.14 0.71L290.14 0.71Q287.57 0.71 285.39-0.15 283.2-1 281.63-2.69 280.05-4.37 279.16-6.88 278.27-9.4 278.27-12.74L278.27-12.74Q278.27-15.45 279.03-17.86 279.78-20.26 281.29-22.06 282.79-23.85 285.01-24.9 287.23-25.95 290.18-25.95L290.18-25.95Q293.04-25.95 294.96-25.09 296.87-24.22 298.08-22.79 299.29-21.36 299.91-19.53 300.54-17.7 300.78-15.8L300.78-15.8Q300.9-14.87 300.94-13.92 300.98-12.96 300.98-12.06L300.98-12.06ZM289.87-22.14L289.87-22.14Q288.28-22.14 287.1-21.69 285.91-21.24 285.08-20.4 284.25-19.56 283.75-18.33 283.25-17.11 283.01-15.6L283.01-15.6 296.12-15.6Q296.02-17.02 295.67-18.21 295.31-19.41 294.58-20.29 293.85-21.17 292.7-21.66 291.55-22.14 289.87-22.14ZM314.47-33.45L314.47-25.29 320.41-25.29 320.41-21.61 314.43-21.61 314.35-7.01Q314.35-5.52 314.69-4.59 315.04-3.66 315.79-3.31 316.55-2.95 317.5-2.95L317.5-2.95Q318.53-2.95 319.31-3.14 320.09-3.32 321.02-3.76L321.02-3.76 322.07-0.71Q320.9-0.1 319.6 0.26 318.31 0.61 316.55 0.61L316.55 0.61Q314.89 0.61 313.66 0.21 312.42-0.2 311.58-1.15 310.74-2.1 310.32-3.7 309.91-5.3 309.91-7.69L309.91-7.69 309.98-21.61 305.95-21.61 305.95-25.29 310.03-25.29 310.03-31.35 314.47-33.45Z" opacity="1" transform="matrix(1,0,0,1,0,0)" fill="#ffffff" class="wordmark-text-0" data-fill-palette-color="primary" id="text-0"></path></svg></g></svg></g></svg></g></svg></g></svg></g></svg></g></svg></g><path d="M220.169 102.853L220.169 38.629 390.112 38.629 390.112 208.571 220.169 208.571 220.169 144.347 222.829 144.347 222.829 205.912 387.453 205.912 387.453 41.288 222.829 41.288 222.829 102.853Z" fill="#ffffff" stroke="transparent" data-fill-palette-color="tertiary"></path></svg></g><defs></defs></svg><rect width="395.52" height="247.2" fill="none" stroke="none" visibility="hidden"></rect></g></svg></g></svg>